<?xml version="1.0" encoding="UTF-8"?>
<svg id="b" data-name="Layer 2" xmlns="http://www.w3.org/2000/svg" viewBox="0 0 493.34 795">
  <defs>
    <style>
      .d {
        fill: #35bb9e;
      }
    </style>
  </defs>
  <g id="c" data-name="Layer 1">
    <path class="d" d="M278.66,582.94c-7.63-14.84-17.96-28.11-26.24-42.59-10-17.5-12.65-34.52-13.42-53.36v-158.95h-.56c-2.93-16.59-17.7-29.21-35.53-29.21s-32.6,12.63-35.53,29.21h-.56l1.71,161.02c-.05,2.4-.14,5.31.13,7.68,2.41,20.73,12.59,39.94,23.51,57.37,14.6,23.31,31.64,46.17,37.11,73.13,6.95,34.19-7.69,71.97-36.21,92.07-28.52,20.1-69.4,21.06-98.51,1.82-20.96-13.86-34.7-37.65-37.45-62.49-1.18-10.59-3.41-26.85,7.73-26.92,6.51-.04,16.72,6.89,22.93,9.44,0,0-51.56-137.48-51.56-137.48-18.8,55.23-42.34,110.22-34.76,170.04,9.13,72.11,68.3,121,140.75,121.29,40.72.17,81.24-16.92,109.54-46.2,17.78-18.39,30.79-41.39,37.26-66.14,8.64-33.06,5.28-69.33-10.34-99.72Z"/>
    <path class="d" d="M344.69,0c-13.48-.09-27.21,1.7-40.9,5.61-10.76,3.07-21.16,7.38-30.88,12.93-25.48,14.53-45.65,36.56-66.23,57.45-33.12,33.61-68.37,65.08-101.01,99.17-29.08,30.38-50.75,68.55-50.37,111.55.37,41.6,17.83,83.21,48.7,111.36,14.17,12.91,31.01,22.75,49.08,29.13v-70.88c-22.19-15.93-36.67-41.96-36.67-71.4,0-25.12,10.54-47.75,27.42-63.76l-.33-.34,78.72-77.11c2.27-2.51,4.71-4.87,7.25-7.1l.79-.78.05.05c.26-.22.53-.43.8-.65l46-45.06c18.46-20.38,46.69-30.92,74.14-28.14,25.9,2.63,50.38,17.34,64.57,39.16,14.19,21.82,17.7,50.33,8.89,74.83-5.56,15.46-15.4,28.68-26.57,40.88-5.95,6.5-12.28,12.71-18.54,18.82-28.54,27.84-57.08,55.68-85.62,83.52-13.27,12.95-26.39,26.66-41.23,36.96v70.21c33.69-13.11,61.23-38.11,86.04-63.84,29.66-30.76,62.7-58.21,92.31-89.23,16.21-16.98,35.2-35.84,46.5-56.62,10.82-19.9,15.75-45.68,15.75-68.27,0-83.07-69.89-147.92-148.65-148.45Z"/>
  </g>
</svg>