<?xml version="1.0" encoding="UTF-8"?>
<svg id="b" xmlns="http://www.w3.org/2000/svg" version="1.1" viewBox="0 0 880.2 416.3">
  <!-- Generator: Adobe Illustrator 29.5.0, SVG Export Plug-In . SVG Version: 2.1.0 Build 137)  -->
  <defs>
    <style>
      .st0 {
        isolation: isolate;
      }

      .st1 {
        fill: #35bb9e;
      }

      .st2 {
        fill: #3e3e3f;
      }
    </style>
  </defs>
  <g id="c">
    <path class="st1" d="M133.9,280.1c-3.7-7.1-8.6-13.5-12.6-20.5-4.8-8.4-6.1-16.6-6.4-25.6v-76.4h-.3c-1.4-8-8.5-14-17.1-14s-15.7,6.1-17.1,14h-.3l.8,77.4v3.7c1.2,10,6.1,19.2,11.3,27.6,7,11.2,15.2,22.2,17.8,35.1,3.3,16.4-3.7,34.6-17.4,44.2-13.7,9.7-33.3,10.1-47.3.9-10.1-6.7-16.7-18.1-18-30-.6-5.1-1.6-12.9,3.7-12.9s8,3.3,11,4.5l-24.8-66.1c-9,26.5-20.3,53-16.7,81.7,4.4,34.6,32.8,58.1,67.6,58.3,19.6,0,39-8.1,52.6-22.2,8.5-8.8,14.8-19.9,17.9-31.8,4.1-15.9,2.5-33.3-5-47.9h.3Z"/>
    <path class="st1" d="M165.6,0c-6.5,0-13.1.8-19.7,2.7-5.2,1.5-10.2,3.5-14.8,6.2-12.2,7-21.9,17.6-31.8,27.6-15.9,16.2-32.9,31.3-48.5,47.7-14,14.6-24.4,32.9-24.2,53.6.2,20,8.6,40,23.4,53.5,6.8,6.2,14.9,10.9,23.6,14v-34.1c-10.7-7.7-17.6-20.2-17.6-34.3s5.1-22.9,13.2-30.6l-.2-.2,37.8-37.1c1.1-1.2,2.3-2.3,3.5-3.4l.4-.4h0c0,0,.3-.2.4-.3l22.1-21.7c8.9-9.8,22.4-14.9,35.6-13.5,12.4,1.3,24.2,8.3,31,18.8s8.5,24.2,4.3,36c-2.7,7.4-7.4,13.8-12.8,19.7-2.9,3.1-5.9,6.1-8.9,9-13.7,13.4-27.4,26.8-41.1,40.1-6.4,6.2-12.7,12.8-19.8,17.8v33.7c16.2-6.3,29.4-18.3,41.3-30.7,14.2-14.8,30.1-28,44.4-42.9,7.8-8.2,16.9-17.2,22.4-27.2,5.2-9.6,7.6-22,7.6-32.8C237.1,31.4,203.5.3,165.6,0h0Z"/>
    <g class="st0">
      <path class="st2" d="M299.1,327.1h-32.8v-59.1h-60.1v59.1h-32.7v-145h32.7v57.8h60.1v-57.8h32.8v145Z"/>
      <path class="st2" d="M393.5,329.6c-20.8,0-37.7-6.8-50.8-20.3-13.1-13.5-19.6-31.1-19.6-52.8s6.6-41.5,19.9-55.6c13.3-14.2,30.9-21.2,52.8-21.2s37.4,6.8,50.2,20.3c12.8,13.6,19.2,31.4,19.2,53.6s-6.6,41.2-19.9,55.1c-13.2,14-30.5,20.9-51.8,20.9h0ZM394.9,207.8c-11.5,0-20.6,4.3-27.3,12.9-6.7,8.6-10.1,20-10.1,34.1s3.4,25.7,10.1,34.1,15.6,12.5,26.5,12.5,20.2-4.1,26.8-12.2c6.6-8.1,9.9-19.4,9.9-33.8s-3.2-26.7-9.6-35.1-15.2-12.5-26.3-12.5h0Z"/>
      <path class="st2" d="M550.6,329.6c-20.8,0-37.7-6.8-50.8-20.3-13.1-13.5-19.6-31.1-19.6-52.8s6.6-41.5,19.9-55.6c13.3-14.2,30.9-21.2,52.8-21.2s37.4,6.8,50.2,20.3c12.8,13.6,19.2,31.4,19.2,53.6s-6.6,41.2-19.9,55.1c-13.2,14-30.5,20.9-51.8,20.9h0ZM552,207.8c-11.5,0-20.6,4.3-27.3,12.9-6.7,8.6-10.1,20-10.1,34.1s3.4,25.7,10.1,34.1c6.7,8.4,15.6,12.5,26.5,12.5s20.2-4.1,26.8-12.2,9.9-19.4,9.9-33.8-3.2-26.7-9.6-35.1c-6.4-8.4-15.2-12.5-26.3-12.5h0Z"/>
      <path class="st2" d="M766.9,327.1h-41.3l-42.3-63c-.8-1.2-2.1-3.9-3.8-8h-.5v71h-32.7v-145h32.7v68.6h.5c.8-1.9,2.2-4.6,4-8.1l40-60.5h38.9l-50.6,69.2,54.9,75.8h.2Z"/>
      <path class="st2" d="M774.1,321.6v-32.4c5.9,4.9,12.2,8.6,19.1,11.1,6.9,2.5,13.8,3.7,20.8,3.7s7.7-.4,10.8-1.1,5.6-1.8,7.7-3.1c2.1-1.3,3.6-2.9,4.6-4.7,1-1.8,1.5-3.7,1.5-5.8s-.8-5.4-2.4-7.6-3.8-4.3-6.6-6.2c-2.8-1.9-6.1-3.7-10-5.5-3.8-1.8-8-3.5-12.4-5.4-11.3-4.7-19.8-10.5-25.3-17.3-5.6-6.8-8.3-15-8.3-24.7s1.5-14,4.6-19.5c3-5.4,7.2-9.9,12.4-13.4s11.3-6.1,18.2-7.7c6.9-1.7,14.2-2.5,21.8-2.5s14.2.5,20.1,1.4c5.8.9,11.2,2.3,16.1,4.2v30.2c-2.4-1.7-5.1-3.2-7.9-4.4-2.9-1.3-5.8-2.3-8.8-3.2-3-.8-6.1-1.5-9.1-1.9s-5.8-.6-8.5-.6-7.1.4-10.1,1.1-5.6,1.7-7.7,3c-2.1,1.3-3.7,2.8-4.9,4.6-1.1,1.8-1.7,3.8-1.7,6s.6,4.6,1.9,6.5c1.3,1.9,3.1,3.7,5.5,5.5,2.4,1.7,5.2,3.4,8.6,5.1,3.4,1.7,7.2,3.4,11.4,5.1,5.8,2.4,11,5,15.6,7.7s8.6,5.8,11.9,9.3c3.3,3.4,5.8,7.4,7.6,11.8s2.6,9.6,2.6,15.4-1.5,14.9-4.6,20.4-7.2,9.9-12.5,13.3-11.4,5.8-18.4,7.3-14.3,2.2-22.1,2.2-15.5-.7-22.7-2-13.4-3.4-18.7-6.1v.2Z"/>
    </g>
  </g>
</svg>