<?xml version="1.0" encoding="UTF-8"?>
<svg id="Layer_2" data-name="Layer 2" xmlns="http://www.w3.org/2000/svg" viewBox="0 0 641.81 78.26">
  <defs>
    <style>
      .cls-1 {
        fill: #fff;
      }

      .cls-2 {
        fill: #35bb9e;
      }
    </style>
  </defs>
  <g id="WOB-LONG-TEAL">
    <g>
      <g id="TEXT">
        <path class="cls-1" d="M124.51.11h17.15l30.47,54.2.37-54.17,15.07.04-.22,77.86h-16.14s-31.38-55.57-31.38-55.57l-.37,55.57h-15.17L124.51.11Z"/>
        <path class="cls-1" d="M194.38,30.84c.44-2.47,1.09-4.47,1.96-6.94,1.45-4.4,3.79-8.45,7.03-12.15,3.17-3.57,7.08-6.58,11.82-8.57,4.96-1.98,11-2.96,17.25-2.94h1.29s1.41.03,1.41.03c2.87.09,5.58.41,8.16,1.03,2.94.83,5.63,1.94,7.71,3.12,4.44,2.28,7.91,5.49,10.7,9.35,1.43,1.93,2.5,3.89,3.21,5.89.71,1.86,1.07,3.79,1.06,5.78l-16.14-.04c-.21-1.58-1-3.34-2.35-5.27-1.36-1.86-3.33-3.48-5.9-4.87-2.44-1.31-5.38-1.97-8.82-1.98-1.08,0-2.71.1-4,.3-1.08.14-2.37.41-3.88.81-2.44.82-4.78,2.19-7.01,4.11-2.23,1.92-4.07,4.7-5.51,8.34-1.45,3.71-2.18,7.6-2.19,12.62-.02,5.5.83,10.11,2.54,13.83,1.71,3.72,3.93,6.41,6.65,8.07,2.72,1.73,5.95,2.87,9.67,3.43l2.91.21c2.94,0,5.81-.57,8.61-1.73,2.73-1.16,6.49-4.82,8.19-7.41s3.34-6.3,2.96-10.11l-17.87-.05.04-13.34,32.18.09-.46,45.6h-10.76l-1.59-11.24c-2.59,3.09-5.29,5.45-8.09,7.1-2.66,1.78-5.46,2.91-8.4,3.38-3.09.54-6.24.81-9.47.8-4.23-.01-8.36-.95-12.37-2.82-4.01-1.73-7.67-4.39-10.95-7.97-3.22-3.31-5.75-7.51-7.6-12.61-1.85-4.96-2.77-10.36-2.75-16.2,0-2.68.27-5.23.78-7.63Z"/>
        <path class="cls-1" d="M271.89.16l16.25-.05-.25,77.93h-16.22s.23-77.88.23-77.88Z"/>
        <path class="cls-1" d="M294.06.11l17.1-.06,30.52,54.26.42-54.22,15.02.02-.24,77.94h-16.12s-31.38-55.57-31.38-55.57l-.37,55.57h-15.17l.23-77.94Z"/>
        <path class="cls-1" d="M363.44.11h15.98l-.14,49.19c-.01,3.8.64,6.79,1.96,8.98,1.32,2.33,3.02,3.95,5.1,4.87,2.15.99,4.28,1.49,6.37,1.5,10.02.03,15.05-4.85,15.08-14.63l.14-49.91h16.08l-.14,49.95c-.02,5.14-.86,9.6-2.54,13.39-1.68,3.87-3.88,6.78-6.6,8.74-2.72,2.03-5.89,3.5-9.52,4.41-3.76.97-7.77,1.45-12.01,1.44-5.08-.01-9.92-.94-14.51-2.79-4.66-1.84-8.34-4.77-11.04-8.79-2.91-4.02-4.36-9.26-4.34-15.74l.15-50.62Z"/>
        <path class="cls-1" d="M430.48,40.25c.02-7.9,1.34-14.86,3.94-20.9,2.67-6.03,6.81-10.73,12.42-14.08,5.75-3.42,12.82-5.11,21.22-5.09,4.81.01,9.36.78,13.66,2.3,4.59,1.59,8.53,3.94,11.82,7.04,3.44,3.17,6.15,7.23,8.14,12.18,1.99,4.95,2.98,10.96,2.96,18.03-.02,6.11-.9,11.53-2.63,16.27-1.88,4.8-4.4,8.81-7.57,12.03-3.24,3.29-7.16,5.82-11.76,7.59-4.74,1.77-9.84,2.65-15.29,2.64-7.46-.02-13.92-1.62-19.36-4.79-5.59-3.24-9.81-7.44-12.66-12.6-1.5-2.82-2.67-5.74-3.52-8.77-.92-2.89-1.38-5.94-1.37-9.17v-2.68ZM451.41,57.2c3.35,5.3,8.69,7.96,16.01,7.98,5.02.01,9.12-1.28,12.28-3.88,3.02-2.53,5.26-5.65,6.7-9.36,1.37-3.64,2.07-7.41,2.08-11.32.02-6.45-1.33-12.61-4.03-18.45-2.64-5.78-8.41-8.68-17.3-8.7-3.3,0-6.39.74-9.26,2.24-3.02,1.5-5.61,4.07-7.77,7.7-1.08,1.71-1.95,3.84-2.6,6.38-.73,2.33-1.09,4.84-1.1,7.52-.02,7.97,1.64,14.6,5,19.9Z"/>
        <path class="cls-1" d="M511.08.11h16.47l-.15,49.22c-.01,3.8.66,6.79,2.02,8.98,1.36,2.33,3.11,3.95,5.26,4.87,2.22.99,4.41,1.49,6.56,1.5,10.33.03,15.51-4.85,15.54-14.62l.15-49.91,16.57-.03-.15,49.99c-.02,5.14-.89,9.6-2.62,13.39-1.73,3.87-4,6.78-6.81,8.74-2.81,2.03-6.07,3.5-9.81,4.4-3.88.97-8.01,1.45-12.38,1.44-5.24-.01-10.22-.94-14.95-2.79-4.8-1.84-8.6-4.77-11.38-8.79-3-4.02-4.49-9.26-4.47-15.74l.15-50.66Z"/>
        <path class="cls-1" d="M593.92,53.22c0,2.68.74,4.91,2.24,6.7,1.36,1.79,3.22,3.13,5.58,4.03,2.29.83,4.77,1.25,7.42,1.26,11.34.03,17.01-2.97,17.03-9.01,0-2.26-.56-3.95-1.71-5.05-1.22-1.17-2.58-2-4.08-2.48l-8.17-2.19-7.42-1.67c-5.02-.9-9.43-2.19-13.23-3.84-3.66-1.59-6.52-3.83-8.59-6.72-2.22-2.96-3.32-6.85-3.3-11.79.01-4.32,1.21-8.27,3.59-11.83,2.31-3.56,5.65-6.19,10.03-7.9,4.38-1.77,9.59-2.65,15.61-2.63,5.67.02,10.47.75,14.42,2.2,4.16,1.52,7.31,3.42,9.45,5.69,2.22,2.34,3.86,4.92,4.93,7.74.71,1.92,1.17,3.37,1.38,4.33.28,1.31.42,2.65.42,4.02l-15.5-.04c-.7-7.35-6.07-11.03-16.11-11.06-3.44,0-6.53.7-9.26,2.14s-4.1,3.52-4.11,6.27c-.01,3.84,2.03,6.33,6.11,7.58l10.97,2.6,7.53,1.87c5.88,1.32,10.36,2.74,13.44,4.26,3.01,1.59,5.3,3.62,6.87,6.09,1.57,2.54,2.35,5.94,2.34,10.2-.02,5.01-1.18,9.2-3.48,12.55-2.38,3.29-5.33,5.79-8.85,7.49-3.38,1.64-6.57,2.73-9.59,3.27-1.51.27-2.87.47-4.09.61h-.32c-1.58.13-2.69.2-3.34.2-11.12-.03-19.51-2.15-25.16-6.35-5.8-4.27-8.69-10.46-8.66-18.56l15.61.04Z"/>
        <polygon class="cls-1" points="118.21 78.04 61.02 77.9 61.25 0 118.18 .16 118.13 13.93 77.03 13.81 76.98 32.22 102.66 32.22 102.66 45.91 76.93 45.91 76.88 64.19 118.18 64.31 118.21 78.04"/>
      </g>
      <polygon class="cls-2" points="41.38 78.05 41.3 64.28 0 64.16 .05 45.88 25.78 45.88 25.78 32.19 .1 32.19 .15 13.78 41.26 13.9 41.3 .14 55.06 .14 55.06 77.9 41.38 78.05"/>
    </g>
  </g>
</svg>